<svg width="81" height="19" viewBox="0 0 81 19" fill="none" xmlns="http://www.w3.org/2000/svg">
<g clip-path="url(#clip0_413_81)">
<path fill-rule="evenodd" clip-rule="evenodd" d="M6.89844 12.8771C6.28858 12.8771 5.7037 12.6348 5.27246 12.2036C4.84122 11.7723 4.59896 11.1875 4.59896 10.5776V0H0V10.5776C0 14.3874 3.08866 17.476 6.89844 17.476H11.9573V12.8771H6.89844ZM20.6953 4.59896C20.1518 4.59896 19.6135 4.70602 19.1114 4.91403C18.6092 5.12203 18.1529 5.42691 17.7686 5.81126C17.3842 6.19561 17.0793 6.6519 16.8713 7.15407C16.6633 7.65624 16.5562 8.19447 16.5562 8.73802C16.5562 9.28157 16.6633 9.8198 16.8713 10.322C17.0793 10.8241 17.3842 11.2804 17.7686 11.6648C18.1529 12.0491 18.6092 12.354 19.1114 12.562C19.6135 12.77 20.1518 12.8771 20.6953 12.8771C21.7931 12.8771 22.8458 12.441 23.6221 11.6648C24.3983 10.8886 24.8344 9.83577 24.8344 8.73802C24.8344 7.64027 24.3983 6.58749 23.6221 5.81126C22.8458 5.03504 21.7931 4.59896 20.6953 4.59896ZM11.9573 8.73802C11.9573 3.91233 15.8696 0 20.6953 0C25.521 0 29.4333 3.91233 29.4333 8.73802C29.4333 13.5637 25.521 17.476 20.6953 17.476C15.8696 17.476 11.9573 13.5637 11.9573 8.73802ZM70.3641 4.59896C69.2663 4.59896 68.2135 5.03504 67.4373 5.81126C66.6611 6.58749 66.225 7.64027 66.225 8.73802C66.225 9.83577 66.6611 10.8886 67.4373 11.6648C68.2135 12.441 69.2663 12.8771 70.3641 12.8771C71.4618 12.8771 72.5146 12.441 73.2908 11.6648C74.067 10.8886 74.5031 9.83577 74.5031 8.73802C74.5031 7.64027 74.067 6.58749 73.2908 5.81126C72.5146 5.03504 71.4618 4.59896 70.3641 4.59896ZM61.626 8.73802C61.626 3.91233 65.5384 0 70.3641 0C75.1898 0 79.1021 3.91233 79.1021 8.73802C79.1021 13.5637 75.1898 17.476 70.3641 17.476C65.5384 17.476 61.626 13.5637 61.626 8.73802ZM39.0911 0C34.2655 0 30.3531 3.91233 30.3531 8.73802C30.3531 13.5637 34.2655 17.476 39.0911 17.476H51.9682C52.8738 17.476 53.7471 17.3381 54.5685 17.0824L57.0271 18.3958L59.6798 13.4271C60.3536 12.1623 60.7061 10.7511 60.7062 9.31795V8.73802C60.7062 3.91233 56.7939 0 51.9682 0H39.0911ZM56.1073 8.73802C56.1073 7.64027 55.6712 6.58749 54.895 5.81126C54.1188 5.03504 53.066 4.59896 51.9682 4.59896H39.0911C38.5476 4.59896 38.0094 4.70602 37.5072 4.91403C37.005 5.12203 36.5487 5.42691 36.1644 5.81126C35.78 6.19561 35.4752 6.6519 35.2671 7.15407C35.0591 7.65624 34.9521 8.19447 34.9521 8.73802C34.9521 9.28157 35.0591 9.8198 35.2671 10.322C35.4752 10.8241 35.78 11.2804 36.1644 11.6648C36.5487 12.0491 37.005 12.354 37.5072 12.562C38.0094 12.77 38.5476 12.8771 39.0911 12.8771H51.9682C53.0604 12.8771 54.1084 12.4455 54.8837 11.6762C55.659 10.9069 56.0988 9.86237 56.1073 8.77021V8.73802Z" fill="black"/>
<path d="M80.9418 1.14986C80.9418 1.45479 80.8207 1.74723 80.6051 1.96285C80.3894 2.17847 80.097 2.2996 79.7921 2.2996C79.4871 2.2996 79.1947 2.17847 78.9791 1.96285C78.7635 1.74723 78.6423 1.45479 78.6423 1.14986C78.6423 0.844932 78.7635 0.552491 78.9791 0.336873C79.1947 0.121255 79.4871 0.00012207 79.7921 0.00012207C80.097 0.00012207 80.3894 0.121255 80.6051 0.336873C80.8207 0.552491 80.9418 0.844932 80.9418 1.14986Z" fill="black"/>
</g>
<defs>
<clipPath id="clip0_413_81">
<rect width="80.9417" height="18.3958" fill="white"/>
</clipPath>
</defs>
</svg>
